<svg width="80" height="80" viewBox="0 0 80 80" fill="none" xmlns="http://www.w3.org/2000/svg">
<g clip-path="url(#clip0_4_155)">
<path d="M70 40C70 56.5685 56.3447 70 39.5 70C22.6553 70 9 56.5685 9 40C9 23.4315 22.6553 10 39.5 10C56.3447 10 70 23.4315 70 40Z" fill="url(#paint0_linear_4_155)"/>
<g filter="url(#filter0_d_4_155)">
<path d="M40 40C-8.41881 40 -0.617546 33.5645 9.5 35" stroke="#698FD8" stroke-width="2"/>
</g>
<g filter="url(#filter1_d_4_155)">
<path d="M40 40C89.358 40 79.8138 46.082 69.5 44.5" stroke="#698FD8" stroke-width="2"/>
</g>
<path d="M19.442 31.45C19.238 31.45 19.136 31.348 19.136 31.144C19.136 30.952 19.25 30.856 19.478 30.856C19.682 30.856 19.934 30.844 20.234 30.82C20.534 30.784 20.798 30.76 21.026 30.748C21.062 30.52 21.182 30.184 21.386 29.74C21.59 29.296 21.86 28.792 22.196 28.228C22.532 27.664 22.91 27.082 23.33 26.482L26.336 22.198C26.468 21.994 26.648 21.712 26.876 21.352C27.116 20.98 27.398 20.53 27.722 20.002C27.362 20.026 27.032 20.056 26.732 20.092C26.444 20.128 26.186 20.164 25.958 20.2C25.622 20.248 25.4 20.284 25.292 20.308C25.184 20.332 25.1 20.344 25.04 20.344C24.836 20.344 24.734 20.23 24.734 20.002C24.734 19.87 24.818 19.786 24.986 19.75C25.694 19.618 26.384 19.516 27.056 19.444C27.74 19.372 28.412 19.336 29.072 19.336C29.72 19.336 30.248 19.39 30.656 19.498C30.848 19.558 30.974 19.618 31.034 19.678C31.106 19.738 31.142 19.816 31.142 19.912C31.142 20.104 31.052 20.2 30.872 20.2C30.812 20.2 30.728 20.176 30.62 20.128C30.512 20.08 30.344 20.038 30.116 20.002C29.9 19.954 29.57 19.93 29.126 19.93C28.958 19.93 28.808 19.93 28.676 19.93C28.556 19.93 28.454 19.936 28.37 19.948C28.358 20.2 28.13 20.644 27.686 21.28L26.786 22.558L24.482 25.924C24.05 26.548 23.654 27.148 23.294 27.724C22.934 28.3 22.598 28.84 22.286 29.344C22.106 29.644 21.908 30.082 21.692 30.658C22.148 30.61 22.526 30.58 22.826 30.568C23.126 30.544 23.342 30.532 23.474 30.532C23.738 30.532 23.972 30.544 24.176 30.568C24.392 30.58 24.578 30.598 24.734 30.622C24.914 30.658 25.004 30.748 25.004 30.892C25.004 31.084 24.896 31.18 24.68 31.18C24.536 31.18 24.35 31.168 24.122 31.144C23.906 31.132 23.714 31.126 23.546 31.126C23.006 31.126 22.346 31.18 21.566 31.288C21.506 31.384 21.422 31.432 21.314 31.432C21.218 31.432 21.146 31.39 21.098 31.306C20.738 31.354 20.42 31.39 20.144 31.414C19.868 31.438 19.634 31.45 19.442 31.45ZM28.0438 31.45C27.8518 31.45 27.7558 31.372 27.7558 31.216C27.7558 31.156 27.7798 31.084 27.8278 31C27.8758 30.904 27.9178 30.826 27.9538 30.766L29.5738 27.508C30.2698 26.092 30.6178 25.306 30.6178 25.15C30.6178 24.982 30.7018 24.898 30.8698 24.898C31.0978 24.898 31.2118 25.018 31.2118 25.258C31.2118 25.342 31.1578 25.522 31.0498 25.798C30.9418 26.074 30.8038 26.386 30.6358 26.734C30.3478 27.358 30.1078 27.838 29.9158 28.174C30.2758 27.754 30.6418 27.358 31.0138 26.986C31.3858 26.614 31.7638 26.26 32.1478 25.924C33.2878 24.928 34.1638 24.43 34.7758 24.43C35.1958 24.43 35.4058 24.628 35.4058 25.024C35.4058 25.384 35.0998 26.194 34.4878 27.454C33.8758 28.726 33.5698 29.53 33.5698 29.866C33.5698 30.022 33.6238 30.1 33.7318 30.1C33.7678 30.1 33.8218 30.088 33.8938 30.064C33.9778 30.028 34.0618 30.01 34.1458 30.01C34.3498 30.01 34.4518 30.106 34.4518 30.298C34.4518 30.538 34.1938 30.658 33.6778 30.658C33.4378 30.658 33.2638 30.604 33.1558 30.496C33.0478 30.376 32.9938 30.22 32.9938 30.028C32.9938 29.452 33.2878 28.576 33.8758 27.4C34.4638 26.236 34.7578 25.534 34.7578 25.294C34.7578 25.15 34.7038 25.078 34.5958 25.078C34.3318 25.078 33.9058 25.3 33.3178 25.744C32.6818 26.224 32.0458 26.776 31.4098 27.4C30.7738 28.024 30.1678 28.738 29.5918 29.542L28.3318 31.288C28.2598 31.396 28.1638 31.45 28.0438 31.45Z" fill="#333333"/>
<g filter="url(#filter2_d_4_155)">
<path d="M29.976 57.104C29.7733 57.104 29.672 56.944 29.672 56.624C29.672 56.1547 29.9333 55.3333 30.456 54.16C30.9893 52.9867 31.7787 51.4507 32.824 49.552C32.4187 49.552 32.0347 49.6053 31.672 49.712C31.32 49.808 31.1333 49.9307 31.112 50.08C31.1013 50.1227 31.0747 50.1653 31.032 50.208C31 50.24 30.9467 50.256 30.872 50.256C30.7013 50.256 30.616 50.1707 30.616 50C30.616 49.7227 30.8347 49.4933 31.272 49.312C31.7093 49.1307 32.3227 49.04 33.112 49.04L34.216 47.216C34.2907 47.0987 34.3707 46.9707 34.456 46.832C34.5413 46.6827 34.6373 46.5227 34.744 46.352C34.8507 46.2027 34.9733 46.128 35.112 46.128C35.1973 46.128 35.2613 46.1547 35.304 46.208C35.3467 46.2507 35.368 46.2987 35.368 46.352C35.368 46.512 35.1333 46.9387 34.664 47.632C34.0773 48.496 33.7627 48.9653 33.72 49.04C33.88 49.04 34.12 49.056 34.44 49.088C34.76 49.1093 35.1387 49.1467 35.576 49.2C35.736 49.2107 35.816 49.2907 35.816 49.44C35.816 49.6107 35.72 49.696 35.528 49.696C35.4533 49.696 35.304 49.6853 35.08 49.664C34.856 49.632 34.616 49.6053 34.36 49.584C34.104 49.5627 33.8853 49.5573 33.704 49.568L33.464 49.584C31.2987 53.392 30.2213 55.76 30.232 56.688L30.248 56.816V56.848C30.248 57.0187 30.1573 57.104 29.976 57.104ZM37.0563 49.696C36.8749 49.696 36.7843 49.6053 36.7843 49.424C36.7843 49.3707 36.8216 49.2747 36.8963 49.136C36.9709 48.9867 37.0563 48.8373 37.1523 48.688C37.2483 48.5387 37.3229 48.4373 37.3763 48.384C37.5576 48.1813 37.6963 48.0533 37.7923 48C37.8989 47.9467 37.9949 47.92 38.0803 47.92C38.3043 47.92 38.4163 48.0213 38.4163 48.224C38.4163 48.2987 38.3683 48.3893 38.2723 48.496C38.1869 48.592 38.0856 48.6827 37.9683 48.768C37.7976 48.8747 37.6909 48.96 37.6483 49.024L37.2963 49.52C37.2856 49.5627 37.2589 49.6053 37.2163 49.648C37.1843 49.68 37.1309 49.696 37.0563 49.696ZM34.3363 56.176C34.0376 56.176 33.8189 56.1173 33.6803 56C33.5523 55.8827 33.4883 55.7067 33.4883 55.472C33.4883 55.248 33.5576 54.944 33.6963 54.56C33.8349 54.1653 34.0109 53.744 34.2243 53.296C34.4483 52.848 34.6829 52.4213 34.9283 52.016C35.1736 51.6107 35.4083 51.28 35.6323 51.024C35.8669 50.7573 36.0536 50.624 36.1923 50.624C36.3843 50.624 36.4803 50.7093 36.4803 50.88C36.4803 50.9867 36.3896 51.1893 36.2083 51.488C36.0269 51.7867 35.8296 52.096 35.6163 52.416C35.5309 52.5333 35.4136 52.6933 35.2643 52.896C35.1149 53.0987 34.9709 53.2907 34.8323 53.472C34.6936 53.6427 34.6029 53.76 34.5603 53.824C34.4536 53.984 34.3416 54.2453 34.2243 54.608C34.0963 54.9707 34.0323 55.248 34.0323 55.44C34.0323 55.5253 34.0483 55.5893 34.0803 55.632C34.1229 55.6747 34.2136 55.696 34.3523 55.696C34.6189 55.696 34.9176 55.6107 35.2483 55.44C35.5789 55.2693 35.9149 55.056 36.2563 54.8C36.5976 54.5333 36.9176 54.2613 37.2163 53.984C37.5256 53.7067 37.7869 53.4667 38.0003 53.264C38.0429 53.2213 38.1069 53.2 38.1923 53.2C38.3523 53.2 38.4323 53.264 38.4323 53.392C38.4323 53.5093 38.3576 53.6427 38.2083 53.792C37.9203 54.08 37.6536 54.336 37.4083 54.56C37.1629 54.784 36.9283 54.9813 36.7043 55.152C36.3523 55.408 35.9629 55.6427 35.5363 55.856C35.1096 56.0693 34.7096 56.176 34.3363 56.176ZM36.9785 56.544C36.7972 56.544 36.7065 56.4587 36.7065 56.288C36.7065 56.2773 36.7705 56.144 36.8985 55.888C37.0265 55.632 37.2078 55.2533 37.4425 54.752L38.2585 53.04C38.5892 52.3467 38.8238 51.7973 38.9625 51.392C39.1118 50.9867 39.1865 50.7253 39.1865 50.608C39.1865 50.4373 39.2718 50.352 39.4425 50.352C39.6132 50.352 39.6985 50.4373 39.6985 50.608C39.6985 50.7467 39.6505 50.9653 39.5545 51.264C39.4692 51.552 39.3252 51.9253 39.1225 52.384L38.3065 54.24C40.5358 51.424 42.2158 50.016 43.3465 50.016C43.5598 50.016 43.7252 50.1067 43.8425 50.288C43.9598 50.4587 44.0185 50.6507 44.0185 50.864C44.0185 51.376 43.6505 52.2667 42.9145 53.536C43.4798 52.96 44.0505 52.384 44.6265 51.808C45.2132 51.2213 45.7998 50.6453 46.3865 50.08C46.5358 49.9413 46.6585 49.872 46.7545 49.872C46.8825 49.872 46.9892 49.936 47.0745 50.064C47.1598 50.1813 47.2025 50.3093 47.2025 50.448C47.2025 50.5547 47.1545 50.688 47.0585 50.848C46.9198 51.0827 46.7918 51.3653 46.6745 51.696C46.5572 52.016 46.4238 52.3787 46.2745 52.784C46.1038 53.2427 45.9812 53.6427 45.9065 53.984C45.8318 54.3253 45.7945 54.6027 45.7945 54.816C45.7945 55.0827 45.8585 55.28 45.9865 55.408C46.1145 55.5253 46.2425 55.584 46.3705 55.584C46.5945 55.584 46.8398 55.5253 47.1065 55.408C47.3732 55.2907 47.5918 55.1733 47.7625 55.056C48.1038 54.832 48.4612 54.5547 48.8345 54.224C49.2078 53.8827 49.5652 53.5413 49.9065 53.2C49.9492 53.1573 50.0132 53.136 50.0985 53.136C50.2585 53.136 50.3385 53.2 50.3385 53.328C50.3385 53.4453 50.2638 53.5787 50.1145 53.728C49.6878 54.1547 49.3038 54.5227 48.9625 54.832C48.6212 55.1307 48.2958 55.376 47.9865 55.568C47.7838 55.6853 47.5385 55.808 47.2505 55.936C46.9625 56.064 46.6532 56.128 46.3225 56.128C46.0132 56.128 45.7518 56.032 45.5385 55.84C45.3358 55.648 45.2345 55.2373 45.2345 54.608C45.2345 54.3627 45.2772 54.0747 45.3625 53.744C45.4478 53.4027 45.5758 53.024 45.7465 52.608L46.5945 50.592L44.3065 52.896C44.0398 53.1627 43.8212 53.3867 43.6505 53.568C43.4798 53.7493 43.3412 53.8987 43.2345 54.016C43.0318 54.2293 42.8505 54.4373 42.6905 54.64C42.5412 54.8427 42.4132 55.0187 42.3065 55.168C42.2318 55.2853 42.1465 55.344 42.0505 55.344C41.8692 55.344 41.7785 55.2693 41.7785 55.12C41.7785 54.7893 42.0772 54.0267 42.6745 52.832C43.2718 51.6373 43.5705 50.9227 43.5705 50.688C43.5705 50.5813 43.4532 50.528 43.2185 50.528C42.2692 50.528 40.5785 52.08 38.1465 55.184C37.9438 55.472 37.6078 55.904 37.1385 56.48C37.1065 56.5227 37.0532 56.544 36.9785 56.544ZM50.9819 56.288C50.5339 56.288 50.1819 56.1333 49.9259 55.824C49.6699 55.5147 49.5419 55.136 49.5419 54.688C49.5419 53.92 49.7979 53.1307 50.3099 52.32C50.4485 52.096 50.6085 51.8773 50.7899 51.664C50.9712 51.44 51.1685 51.2267 51.3819 51.024C51.7019 50.7147 52.0379 50.4587 52.3899 50.256C52.7419 50.0533 53.0832 49.952 53.4139 49.952C53.9579 49.952 54.2299 50.208 54.2299 50.72C54.2299 51.36 53.8565 51.9413 53.1099 52.464C52.4165 52.9333 51.7339 53.168 51.0619 53.168C50.9445 53.168 50.8379 53.1627 50.7419 53.152C50.6565 53.1307 50.5765 53.1093 50.5019 53.088C50.3952 53.2907 50.2992 53.552 50.2139 53.872C50.1285 54.192 50.0859 54.4693 50.0859 54.704C50.0859 55.408 50.3952 55.76 51.0139 55.76C51.5152 55.76 51.9899 55.6747 52.4379 55.504C52.8859 55.3227 53.4192 54.9867 54.0379 54.496C54.4219 54.1973 54.7099 53.9573 54.9019 53.776C55.0939 53.5947 55.3019 53.4027 55.5259 53.2C55.5899 53.1573 55.6485 53.136 55.7019 53.136C55.7552 53.136 55.8085 53.152 55.8619 53.184C55.9152 53.216 55.9419 53.264 55.9419 53.328C55.9419 53.4453 55.8352 53.6107 55.6219 53.824C55.4405 53.9947 55.2485 54.176 55.0459 54.368C54.8432 54.5493 54.5232 54.8053 54.0859 55.136C53.6165 55.4987 53.1045 55.7813 52.5499 55.984C51.9952 56.1867 51.4725 56.288 50.9819 56.288ZM50.9659 52.656C51.3072 52.656 51.6325 52.6027 51.9419 52.496C52.2512 52.3893 52.5445 52.2347 52.8219 52.032C53.4405 51.5733 53.7499 51.1413 53.7499 50.736C53.7499 50.5547 53.6379 50.464 53.4139 50.464C52.9872 50.464 52.4912 50.7253 51.9259 51.248C51.6485 51.504 51.4192 51.7387 51.2379 51.952C51.0672 52.1547 50.9072 52.3787 50.7579 52.624C50.8219 52.6453 50.8912 52.656 50.9659 52.656Z" fill="#333333"/>
</g>
</g>
<defs>
<filter id="filter0_d_4_155" x="-1.0844" y="33.7912" width="43.0844" height="13.2088" filterUnits="userSpaceOnUse" color-interpolation-filters="sRGB">
<feFlood flood-opacity="0" result="BackgroundImageFix"/>
<feColorMatrix in="SourceAlpha" type="matrix" values="0 0 0 0 0 0 0 0 0 0 0 0 0 0 0 0 0 0 127 0" result="hardAlpha"/>
<feOffset dy="4"/>
<feGaussianBlur stdDeviation="1"/>
<feComposite in2="hardAlpha" operator="out"/>
<feColorMatrix type="matrix" values="0 0 0 0 0 0 0 0 0 0 0 0 0 0 0 0 0 0 0.25 0"/>
<feBlend mode="normal" in2="BackgroundImageFix" result="effect1_dropShadow_4_155"/>
<feBlend mode="normal" in="SourceGraphic" in2="effect1_dropShadow_4_155" result="shape"/>
</filter>
<filter id="filter1_d_4_155" x="38" y="39" width="42.7916" height="12.7626" filterUnits="userSpaceOnUse" color-interpolation-filters="sRGB">
<feFlood flood-opacity="0" result="BackgroundImageFix"/>
<feColorMatrix in="SourceAlpha" type="matrix" values="0 0 0 0 0 0 0 0 0 0 0 0 0 0 0 0 0 0 127 0" result="hardAlpha"/>
<feOffset dy="4"/>
<feGaussianBlur stdDeviation="1"/>
<feComposite in2="hardAlpha" operator="out"/>
<feColorMatrix type="matrix" values="0 0 0 0 0 0 0 0 0 0 0 0 0 0 0 0 0 0 0.25 0"/>
<feBlend mode="normal" in2="BackgroundImageFix" result="effect1_dropShadow_4_155"/>
<feBlend mode="normal" in="SourceGraphic" in2="effect1_dropShadow_4_155" result="shape"/>
</filter>
<filter id="filter2_d_4_155" x="25.672" y="46.128" width="34.2699" height="18.976" filterUnits="userSpaceOnUse" color-interpolation-filters="sRGB">
<feFlood flood-opacity="0" result="BackgroundImageFix"/>
<feColorMatrix in="SourceAlpha" type="matrix" values="0 0 0 0 0 0 0 0 0 0 0 0 0 0 0 0 0 0 127 0" result="hardAlpha"/>
<feOffset dy="4"/>
<feGaussianBlur stdDeviation="2"/>
<feComposite in2="hardAlpha" operator="out"/>
<feColorMatrix type="matrix" values="0 0 0 0 0 0 0 0 0 0 0 0 0 0 0 0 0 0 0.25 0"/>
<feBlend mode="normal" in2="BackgroundImageFix" result="effect1_dropShadow_4_155"/>
<feBlend mode="normal" in="SourceGraphic" in2="effect1_dropShadow_4_155" result="shape"/>
</filter>
<linearGradient id="paint0_linear_4_155" x1="39.5" y1="10" x2="18.5" y2="70" gradientUnits="userSpaceOnUse">
<stop offset="0.429287" stop-color="#BF6396"/>
<stop offset="1" stop-color="#BF6396" stop-opacity="0"/>
</linearGradient>
<clipPath id="clip0_4_155">
<rect width="80" height="80" fill="white"/>
</clipPath>
</defs>
</svg>
